<mxfile host="app.diagrams.net" modified="2021-12-02T22:40:40.608Z" agent="5.0 (Windows NT 10.0; Win64; x64) AppleWebKit/537.36 (KHTML, like Gecko) Chrome/95.0.4638.69 Safari/537.36 OPR/81.0.4196.60" etag="_0gAcQmpg28w5L21lfXj" version="15.8.9" type="github">
  <diagram name="Page-1" id="fbcf5db9-b524-4cd4-e4f3-379dc89c3999">
    <mxGraphModel dx="1382" dy="764" grid="1" gridSize="10" guides="1" tooltips="1" connect="1" arrows="1" fold="1" page="1" pageScale="1" pageWidth="850" pageHeight="1100" background="none" math="0" shadow="0">
      <root>
        <mxCell id="0" />
        <mxCell id="1" parent="0" />
        <mxCell id="2a0f93b5c73ef8e7-1" value="" style="line;strokeWidth=10;direction=south;html=1;fillColor=none;fontSize=13;fontColor=#000000;align=center;strokeColor=#AE4132;" parent="1" vertex="1">
          <mxGeometry x="360" y="70" width="10" height="990" as="geometry" />
        </mxCell>
        <mxCell id="2a0f93b5c73ef8e7-2" value="" style="rounded=1;whiteSpace=wrap;html=1;strokeColor=none;strokeWidth=1;fillColor=#F2931E;fontSize=13;fontColor=#FFFFFF;align=center;gradientColor=none;gradientDirection=east;verticalAlign=top;shadow=1;" parent="1" vertex="1">
          <mxGeometry x="170" y="135" width="220" height="45" as="geometry" />
        </mxCell>
        <mxCell id="2a0f93b5c73ef8e7-3" value="1" style="text;html=1;strokeColor=none;fillColor=none;align=center;verticalAlign=middle;whiteSpace=wrap;fontSize=30;fontColor=#FFFFFF;" parent="1" vertex="1">
          <mxGeometry x="180" y="144.5" width="40" height="20" as="geometry" />
        </mxCell>
        <mxCell id="2a0f93b5c73ef8e7-16" value="" style="rounded=1;whiteSpace=wrap;html=1;strokeColor=none;strokeWidth=1;fillColor=#10739E;fontSize=13;fontColor=#FFFFFF;align=center;gradientColor=none;gradientDirection=east;verticalAlign=top;shadow=1;" parent="1" vertex="1">
          <mxGeometry x="340" y="945" width="220" height="45" as="geometry" />
        </mxCell>
        <mxCell id="2a0f93b5c73ef8e7-17" value="8" style="text;html=1;strokeColor=none;fillColor=none;align=center;verticalAlign=middle;whiteSpace=wrap;fontSize=30;fontColor=#FFFFFF;" parent="1" vertex="1">
          <mxGeometry x="350" y="955" width="40" height="20" as="geometry" />
        </mxCell>
        <mxCell id="2a0f93b5c73ef8e7-18" value="&lt;h1&gt;Авторизация&lt;/h1&gt;" style="text;html=1;spacing=5;spacingTop=-20;whiteSpace=wrap;overflow=hidden;strokeColor=none;strokeWidth=4;fillColor=none;gradientColor=#007FFF;fontSize=9;fontColor=#FFFFFF;align=center;" parent="1" vertex="1">
          <mxGeometry x="220" y="139" width="160" height="31" as="geometry" />
        </mxCell>
        <mxCell id="2a0f93b5c73ef8e7-25" value="&lt;h1&gt;Heading&lt;/h1&gt;&lt;p&gt;&lt;br&gt;&lt;/p&gt;" style="text;html=1;spacing=5;spacingTop=-20;whiteSpace=wrap;overflow=hidden;strokeColor=none;strokeWidth=4;fillColor=none;gradientColor=#007FFF;fontSize=9;fontColor=#FFFFFF;align=center;" parent="1" vertex="1">
          <mxGeometry x="390" y="955" width="160" height="30" as="geometry" />
        </mxCell>
        <mxCell id="dqdt-9PuPO9SZWMYVfs7-1" value="" style="group" parent="1" vertex="1" connectable="0">
          <mxGeometry x="170" y="830" width="220" height="40" as="geometry" />
        </mxCell>
        <mxCell id="2a0f93b5c73ef8e7-14" value="" style="rounded=1;whiteSpace=wrap;html=1;strokeColor=none;strokeWidth=1;fillColor=#F2931E;fontSize=13;fontColor=#FFFFFF;align=center;gradientColor=none;gradientDirection=east;verticalAlign=top;shadow=1;" parent="dqdt-9PuPO9SZWMYVfs7-1" vertex="1">
          <mxGeometry width="220" height="40" as="geometry" />
        </mxCell>
        <mxCell id="2a0f93b5c73ef8e7-15" value="7" style="text;html=1;strokeColor=none;fillColor=none;align=center;verticalAlign=middle;whiteSpace=wrap;fontSize=30;fontColor=#FFFFFF;" parent="dqdt-9PuPO9SZWMYVfs7-1" vertex="1">
          <mxGeometry x="10" y="10" width="40" height="20" as="geometry" />
        </mxCell>
        <mxCell id="2a0f93b5c73ef8e7-24" value="&lt;h1&gt;Heading&lt;/h1&gt;&lt;p&gt;&lt;br&gt;&lt;/p&gt;" style="text;html=1;spacing=5;spacingTop=-20;whiteSpace=wrap;overflow=hidden;strokeColor=none;strokeWidth=4;fillColor=none;gradientColor=#007FFF;fontSize=9;fontColor=#FFFFFF;align=center;" parent="dqdt-9PuPO9SZWMYVfs7-1" vertex="1">
          <mxGeometry x="50" y="4" width="160" height="26" as="geometry" />
        </mxCell>
        <mxCell id="dqdt-9PuPO9SZWMYVfs7-2" value="" style="group" parent="1" vertex="1" connectable="0">
          <mxGeometry x="340" y="210" width="220" height="85" as="geometry" />
        </mxCell>
        <mxCell id="2a0f93b5c73ef8e7-4" value="" style="rounded=1;whiteSpace=wrap;html=1;strokeColor=none;strokeWidth=1;fillColor=#10739E;fontSize=13;fontColor=#FFFFFF;align=center;gradientColor=none;gradientDirection=east;verticalAlign=top;shadow=1;" parent="dqdt-9PuPO9SZWMYVfs7-2" vertex="1">
          <mxGeometry width="220" height="85" as="geometry" />
        </mxCell>
        <mxCell id="2a0f93b5c73ef8e7-5" value="2" style="text;html=1;strokeColor=none;fillColor=none;align=center;verticalAlign=middle;whiteSpace=wrap;fontSize=30;fontColor=#FFFFFF;" parent="dqdt-9PuPO9SZWMYVfs7-2" vertex="1">
          <mxGeometry x="10" y="33" width="40" height="20" as="geometry" />
        </mxCell>
        <mxCell id="2a0f93b5c73ef8e7-19" value="&lt;h1&gt;&lt;span&gt;Просмотр задач&lt;/span&gt;&lt;br&gt;&lt;/h1&gt;" style="text;html=1;spacing=5;spacingTop=-20;whiteSpace=wrap;overflow=hidden;strokeColor=none;strokeWidth=4;fillColor=none;gradientColor=#007FFF;fontSize=9;fontColor=#FFFFFF;align=center;" parent="dqdt-9PuPO9SZWMYVfs7-2" vertex="1">
          <mxGeometry x="60" y="15" width="160" height="56" as="geometry" />
        </mxCell>
        <mxCell id="dqdt-9PuPO9SZWMYVfs7-3" value="" style="group" parent="1" vertex="1" connectable="0">
          <mxGeometry x="170" y="330" width="220" height="70" as="geometry" />
        </mxCell>
        <mxCell id="2a0f93b5c73ef8e7-6" value="" style="rounded=1;whiteSpace=wrap;html=1;strokeColor=none;strokeWidth=1;fillColor=#F2931E;fontSize=13;fontColor=#FFFFFF;align=center;gradientColor=none;gradientDirection=east;verticalAlign=top;shadow=1;" parent="dqdt-9PuPO9SZWMYVfs7-3" vertex="1">
          <mxGeometry width="220" height="70" as="geometry" />
        </mxCell>
        <mxCell id="2a0f93b5c73ef8e7-7" value="3" style="text;html=1;strokeColor=none;fillColor=none;align=center;verticalAlign=middle;whiteSpace=wrap;fontSize=30;fontColor=#FFFFFF;" parent="dqdt-9PuPO9SZWMYVfs7-3" vertex="1">
          <mxGeometry x="10" y="12" width="40" height="20" as="geometry" />
        </mxCell>
        <mxCell id="2a0f93b5c73ef8e7-20" value="&lt;h1&gt;Выполнение задачи&lt;/h1&gt;" style="text;html=1;spacing=5;spacingTop=-20;whiteSpace=wrap;overflow=hidden;strokeColor=none;strokeWidth=4;fillColor=none;gradientColor=#007FFF;fontSize=9;fontColor=#FFFFFF;align=center;" parent="dqdt-9PuPO9SZWMYVfs7-3" vertex="1">
          <mxGeometry x="50" y="12" width="160" height="48" as="geometry" />
        </mxCell>
        <mxCell id="dqdt-9PuPO9SZWMYVfs7-5" value="" style="group" parent="1" vertex="1" connectable="0">
          <mxGeometry x="340" y="420" width="220" height="90" as="geometry" />
        </mxCell>
        <mxCell id="2a0f93b5c73ef8e7-8" value="" style="rounded=1;whiteSpace=wrap;html=1;strokeColor=none;strokeWidth=1;fillColor=#10739E;fontSize=13;fontColor=#FFFFFF;align=center;gradientColor=none;gradientDirection=east;verticalAlign=top;shadow=1;" parent="dqdt-9PuPO9SZWMYVfs7-5" vertex="1">
          <mxGeometry width="220" height="90" as="geometry" />
        </mxCell>
        <mxCell id="2a0f93b5c73ef8e7-9" value="4" style="text;html=1;strokeColor=none;fillColor=none;align=center;verticalAlign=middle;whiteSpace=wrap;fontSize=30;fontColor=#FFFFFF;" parent="dqdt-9PuPO9SZWMYVfs7-5" vertex="1">
          <mxGeometry x="10" y="16.875" width="40" height="22.5" as="geometry" />
        </mxCell>
        <mxCell id="2a0f93b5c73ef8e7-21" value="&lt;h1&gt;Отметить, что задача завершена&lt;/h1&gt;" style="text;html=1;spacing=5;spacingTop=-20;whiteSpace=wrap;overflow=hidden;strokeColor=none;strokeWidth=4;fillColor=none;gradientColor=#007FFF;fontSize=9;fontColor=#FFFFFF;align=center;" parent="dqdt-9PuPO9SZWMYVfs7-5" vertex="1">
          <mxGeometry x="50" y="15.75" width="160" height="74.25" as="geometry" />
        </mxCell>
        <mxCell id="dqdt-9PuPO9SZWMYVfs7-6" value="" style="group" parent="1" vertex="1" connectable="0">
          <mxGeometry x="170" y="540" width="220" height="60" as="geometry" />
        </mxCell>
        <mxCell id="2a0f93b5c73ef8e7-10" value="" style="rounded=1;whiteSpace=wrap;html=1;strokeColor=none;strokeWidth=1;fillColor=#F2931E;fontSize=13;fontColor=#FFFFFF;align=center;gradientColor=none;gradientDirection=east;verticalAlign=top;shadow=1;" parent="dqdt-9PuPO9SZWMYVfs7-6" vertex="1">
          <mxGeometry width="220" height="60" as="geometry" />
        </mxCell>
        <mxCell id="2a0f93b5c73ef8e7-11" value="5" style="text;html=1;strokeColor=none;fillColor=none;align=center;verticalAlign=middle;whiteSpace=wrap;fontSize=30;fontColor=#FFFFFF;" parent="dqdt-9PuPO9SZWMYVfs7-6" vertex="1">
          <mxGeometry x="10" y="17" width="40" height="20" as="geometry" />
        </mxCell>
        <mxCell id="2a0f93b5c73ef8e7-22" value="&lt;h1&gt;Написать что-нибудь коллеге&lt;/h1&gt;" style="text;html=1;spacing=5;spacingTop=-20;whiteSpace=wrap;overflow=hidden;strokeColor=none;strokeWidth=4;fillColor=none;gradientColor=#007FFF;fontSize=9;fontColor=#FFFFFF;align=center;" parent="dqdt-9PuPO9SZWMYVfs7-6" vertex="1">
          <mxGeometry x="50" y="4" width="160" height="46" as="geometry" />
        </mxCell>
        <mxCell id="FfD3Kw9KC2EnNsWClpOm-1" value="" style="group" vertex="1" connectable="0" parent="1">
          <mxGeometry x="340" y="620" width="220" height="70" as="geometry" />
        </mxCell>
        <mxCell id="2a0f93b5c73ef8e7-12" value="" style="rounded=1;whiteSpace=wrap;html=1;strokeColor=none;strokeWidth=1;fillColor=#10739E;fontSize=13;fontColor=#FFFFFF;align=center;gradientColor=none;gradientDirection=east;verticalAlign=top;shadow=1;" parent="FfD3Kw9KC2EnNsWClpOm-1" vertex="1">
          <mxGeometry width="220" height="70" as="geometry" />
        </mxCell>
        <mxCell id="2a0f93b5c73ef8e7-13" value="6" style="text;html=1;strokeColor=none;fillColor=none;align=center;verticalAlign=middle;whiteSpace=wrap;fontSize=30;fontColor=#FFFFFF;" parent="FfD3Kw9KC2EnNsWClpOm-1" vertex="1">
          <mxGeometry x="10" y="28" width="40" height="20" as="geometry" />
        </mxCell>
        <mxCell id="2a0f93b5c73ef8e7-23" value="&lt;h1&gt;&lt;span&gt;Выход&lt;/span&gt;&lt;br&gt;&lt;/h1&gt;" style="text;html=1;spacing=5;spacingTop=-20;whiteSpace=wrap;overflow=hidden;strokeColor=none;strokeWidth=4;fillColor=none;gradientColor=#007FFF;fontSize=9;fontColor=#FFFFFF;align=center;" parent="FfD3Kw9KC2EnNsWClpOm-1" vertex="1">
          <mxGeometry x="50" y="22" width="160" height="31" as="geometry" />
        </mxCell>
      </root>
    </mxGraphModel>
  </diagram>
</mxfile>
